<svg xmlns="http://www.w3.org/2000/svg" viewBox="0 0 1398.5 840"><defs><style>.cls-1,.cls-10,.cls-3,.cls-8{fill:#fff;}.cls-12,.cls-2,.cls-6{fill:#11628c;}.cls-2{opacity:0.5;}.cls-10,.cls-3,.cls-4,.cls-7,.cls-8,.cls-9{stroke:#003b5a;}.cls-10,.cls-3,.cls-4,.cls-5,.cls-7,.cls-8,.cls-9{stroke-miterlimit:10;}.cls-3,.cls-7{stroke-width:1.45px;}.cls-4,.cls-5,.cls-7,.cls-9{fill:none;}.cls-4{stroke-width:1.76px;}.cls-5{stroke:#11628c;stroke-width:7.26px;}.cls-5,.cls-6{opacity:0.3;}.cls-8,.cls-9{stroke-width:1.21px;}.cls-10{stroke-width:0.94px;}.cls-11{opacity:0.8;}.cls-12{opacity:0.11;}</style></defs><title>Asset 8</title><g id="Layer_2" data-name="Layer 2"><g id="Layer_1-2" data-name="Layer 1"><rect class="cls-1" width="1398.5" height="836.5"/><path class="cls-2" d="M1212.3,315.07h136a1.09,1.09,0,0,0,1.08-1.29c-.91-4.6-12.58-19.63-31-13.61a1.08,1.08,0,0,1-1.41-.91c-.48-4.73-3.61-19.66-24-13.44a1.09,1.09,0,0,1-1.4-.78c-.9-3.8-6.31-9.89-20.47-9.89-16,0-20.79,10.52-21.37,20.4a1.08,1.08,0,0,1-1.44.95c-3.91-1.35-15.29-4.6-25.07-.68-10,4-11.68,14.54-12,18.08A1.07,1.07,0,0,0,1212.3,315.07Z"/><path class="cls-3" d="M1223.92,324.51h136a1.09,1.09,0,0,0,1.07-1.29c-.91-4.61-12.58-19.63-31-13.61a1.09,1.09,0,0,1-1.41-.92c-.48-4.72-3.61-19.65-24-13.43a1.09,1.09,0,0,1-1.39-.78c-.91-3.81-6.32-9.89-20.47-9.89-16,0-20.8,10.52-21.37,20.4a1.08,1.08,0,0,1-1.45.95c-3.9-1.35-15.28-4.6-25.07-.68-10,4-11.67,14.54-12,18.08A1.09,1.09,0,0,0,1223.92,324.51Z"/><polygon class="cls-3" points="1264.85 838.39 1264.85 321.61 1248.88 321.61 1248.88 291.12 1230.01 291.12 1230.01 266.44 1216.95 266.44 1216.95 243.22 1206.79 243.22 1206.79 219.99 1193.72 219.99 1193.72 169.18 1187.91 169.18 1182.11 169.18 1182.11 219.99 1169.04 219.99 1169.04 243.22 1158.88 243.22 1158.88 266.44 1145.82 266.44 1145.82 291.12 1126.94 291.12 1126.94 321.61 1110.98 321.61 1110.98 838.39 1264.85 838.39"/><line class="cls-4" x1="1148.72" y1="324.51" x2="1148.72" y2="667.1"/><line class="cls-4" x1="1175.33" y1="325.23" x2="1175.33" y2="667.82"/><line class="cls-4" x1="1201.95" y1="324.51" x2="1201.95" y2="667.1"/><line class="cls-4" x1="1228.56" y1="325.23" x2="1228.56" y2="667.82"/><line class="cls-5" x1="1172.43" y1="319.43" x2="1172.43" y2="662.02"/><line class="cls-5" x1="1225.66" y1="319.43" x2="1225.66" y2="662.02"/><path class="cls-3" d="M517.09,432.66H672.38a1.29,1.29,0,0,0,1.3-1.52c-1.1-5.41-6.42-23.06-28.64-16a1.3,1.3,0,0,1-1.7-1.08c-.58-5.55-4.36-23.09-29-15.78a1.32,1.32,0,0,1-1.68-.92c-1.09-4.46-5.87-18.43-22.95-18.43-19.32,0-26.83,19.17-27.52,30.78a1.32,1.32,0,0,1-1.75,1.12c-4.71-1.59-18.44-5.41-30.24-.81-12,4.68-14.09,17.08-14.45,21.24A1.3,1.3,0,0,0,517.09,432.66Z"/><path class="cls-6" d="M528.7,437.74H684a1.29,1.29,0,0,0,1.29-1.52c-1.09-5.4-6.42-23.06-28.64-16a1.31,1.31,0,0,1-1.7-1.08c-.58-5.55-4.35-23.09-29-15.78a1.32,1.32,0,0,1-1.68-.92C623.2,398,618.42,384,601.35,384c-19.33,0-26.84,19.17-27.53,30.78a1.31,1.31,0,0,1-1.74,1.12c-4.71-1.59-18.44-5.41-30.25-.81-12,4.68-14.08,17.08-14.44,21.24A1.28,1.28,0,0,0,528.7,437.74Z"/><path class="cls-3" d="M870.49,211.5h223.32a1.88,1.88,0,0,0,1.86-2.24c-1.57-8-9.23-34.06-41.18-23.61a1.88,1.88,0,0,1-2.45-1.59c-.83-8.2-6.26-34.1-41.68-23.3a1.9,1.9,0,0,1-2.41-1.36c-1.57-6.59-8.44-27.23-33-27.23-27.79,0-38.59,28.32-39.58,45.46a1.89,1.89,0,0,1-2.51,1.66c-6.77-2.34-26.52-8-43.5-1.19-17.26,6.9-20.24,25.23-20.76,31.36A1.88,1.88,0,0,0,870.49,211.5Z"/><polygon class="cls-3" points="616.69 838.67 491.85 838.67 491.85 573.01 520.31 573.01 519.43 558.5 586.21 558.5 586.04 573.01 616.69 573.01 616.69 838.67"/><rect class="cls-7" x="547.01" y="603.95" width="14.52" height="14.52"/><rect class="cls-7" x="520.88" y="603.95" width="14.52" height="14.52"/><rect class="cls-7" x="573.14" y="603.95" width="14.52" height="14.52"/><rect class="cls-7" x="547.01" y="630.08" width="14.52" height="14.52"/><rect class="cls-7" x="520.88" y="630.08" width="14.52" height="14.52"/><rect class="cls-7" x="573.14" y="630.08" width="14.52" height="14.52"/><rect class="cls-7" x="547.01" y="656.21" width="14.52" height="14.52"/><rect class="cls-7" x="520.88" y="656.21" width="14.52" height="14.52"/><rect class="cls-7" x="573.14" y="656.21" width="14.52" height="14.52"/><rect class="cls-7" x="547.01" y="682.34" width="14.52" height="14.52"/><rect class="cls-7" x="520.88" y="682.34" width="14.52" height="14.52"/><rect class="cls-7" x="573.14" y="682.34" width="14.52" height="14.52"/><rect class="cls-7" x="547.01" y="708.47" width="14.52" height="14.52"/><rect class="cls-7" x="520.88" y="708.47" width="14.52" height="14.52"/><rect class="cls-7" x="573.14" y="708.47" width="14.52" height="14.52"/><rect class="cls-7" x="547.01" y="734.6" width="14.52" height="14.52"/><rect class="cls-7" x="520.88" y="734.6" width="14.52" height="14.52"/><rect class="cls-7" x="573.14" y="734.6" width="14.52" height="14.52"/><polygon class="cls-3" points="629.75 838.67 629.75 539.63 657.34 539.63 657.34 497.53 668.95 497.53 668.95 483.01 727.01 483.01 727.01 500.43 747.34 500.43 747.34 483.01 803.95 483.01 803.95 500.43 814.11 500.43 814.11 539.63 841.7 539.63 841.7 838.67 629.75 838.67"/><line class="cls-7" x1="658.79" y1="577.82" x2="729.92" y2="577.82"/><line class="cls-7" x1="741.53" y1="577.82" x2="812.66" y2="577.82"/><line class="cls-7" x1="658.79" y1="606.86" x2="729.92" y2="606.86"/><line class="cls-7" x1="741.53" y1="606.86" x2="812.66" y2="606.86"/><line class="cls-7" x1="658.79" y1="635.89" x2="729.92" y2="635.89"/><line class="cls-7" x1="741.53" y1="635.89" x2="812.66" y2="635.89"/><line class="cls-7" x1="658.79" y1="664.92" x2="729.92" y2="664.92"/><line class="cls-7" x1="741.53" y1="664.92" x2="812.66" y2="664.92"/><line class="cls-7" x1="658.79" y1="693.95" x2="729.92" y2="693.95"/><line class="cls-7" x1="741.53" y1="693.95" x2="812.66" y2="693.95"/><line class="cls-7" x1="658.79" y1="722.99" x2="729.92" y2="722.99"/><line class="cls-7" x1="741.53" y1="722.99" x2="812.66" y2="722.99"/><polygon class="cls-3" points="857.66 838.39 857.66 393.46 885.25 393.46 885.25 358.62 896.86 358.62 896.86 322.33 928.79 236.68 956.38 317.98 956.38 355.72 973.8 355.72 973.8 390.56 999.93 390.56 999.93 838.39 857.66 838.39"/><line class="cls-7" x1="889.6" y1="407.98" x2="889.6" y2="767.99"/><line class="cls-7" x1="915.25" y1="407.98" x2="915.25" y2="767.99"/><line class="cls-7" x1="940.89" y1="407.98" x2="940.89" y2="767.99"/><line class="cls-5" x1="892.5" y1="413.79" x2="892.5" y2="773.8"/><line class="cls-5" x1="943.8" y1="413.79" x2="943.8" y2="773.8"/><line class="cls-7" x1="966.54" y1="407.98" x2="966.54" y2="767.99"/><polygon class="cls-3" points="290.07 838.67 290.07 671.73 329.26 671.73 329.26 644.15 393.13 644.15 393.13 673.18 433.78 673.18 433.78 644.15 500.56 644.15 500.56 674.63 538.3 674.63 538.3 838.67 290.07 838.67"/><rect class="cls-2" x="331.44" y="694.23" width="26.13" height="21.77"/><rect class="cls-2" x="331.44" y="756.65" width="26.13" height="21.77"/><rect class="cls-2" x="373.54" y="788.59" width="26.13" height="21.77"/><rect class="cls-2" x="435.96" y="726.16" width="26.13" height="21.77"/><rect class="cls-2" x="478.06" y="756.65" width="26.13" height="21.77"/><rect class="cls-7" x="327.81" y="690.6" width="26.13" height="21.77"/><rect class="cls-7" x="369.91" y="690.6" width="26.13" height="21.77"/><rect class="cls-7" x="327.81" y="722.54" width="26.13" height="21.77"/><rect class="cls-7" x="369.91" y="722.54" width="26.13" height="21.77"/><rect class="cls-7" x="327.81" y="753.02" width="26.13" height="21.77"/><rect class="cls-7" x="369.91" y="753.02" width="26.13" height="21.77"/><rect class="cls-7" x="327.81" y="784.96" width="26.13" height="21.77"/><rect class="cls-7" x="369.91" y="784.96" width="26.13" height="21.77"/><rect class="cls-7" x="432.33" y="690.6" width="26.13" height="21.77"/><rect class="cls-7" x="474.43" y="690.6" width="26.13" height="21.77"/><rect class="cls-7" x="432.33" y="722.54" width="26.13" height="21.77"/><rect class="cls-7" x="474.43" y="722.54" width="26.13" height="21.77"/><rect class="cls-7" x="432.33" y="753.02" width="26.13" height="21.77"/><rect class="cls-7" x="474.43" y="753.02" width="26.13" height="21.77"/><rect class="cls-7" x="432.33" y="784.96" width="26.13" height="21.77"/><rect class="cls-7" x="474.43" y="784.96" width="26.13" height="21.77"/><polygon class="cls-3" points="731.79 838.39 731.79 726.89 757.97 726.89 757.97 708.47 800.63 708.47 800.63 727.86 827.78 727.86 827.78 708.47 872.38 708.47 872.38 728.83 897.59 728.83 897.59 838.39 731.79 838.39"/><rect class="cls-7" x="757" y="739.5" width="17.45" height="14.54"/><rect class="cls-2" x="758.98" y="762.88" width="17.45" height="14.54"/><rect class="cls-2" x="787.1" y="804.57" width="17.45" height="14.54"/><rect class="cls-2" x="787.1" y="741.54" width="17.45" height="14.54"/><rect class="cls-2" x="856.91" y="741.54" width="17.45" height="14.54"/><rect class="cls-2" x="828.79" y="783.24" width="17.45" height="14.54"/><rect class="cls-7" x="785.12" y="739.5" width="17.45" height="14.54"/><rect class="cls-7" x="757" y="760.83" width="17.45" height="14.54"/><rect class="cls-7" x="785.12" y="760.83" width="17.45" height="14.54"/><rect class="cls-7" x="757" y="781.19" width="17.45" height="14.54"/><rect class="cls-7" x="785.12" y="781.19" width="17.45" height="14.54"/><rect class="cls-7" x="757" y="802.52" width="17.45" height="14.54"/><rect class="cls-7" x="785.12" y="802.52" width="17.45" height="14.54"/><rect class="cls-7" x="826.81" y="739.5" width="17.45" height="14.54"/><rect class="cls-7" x="854.93" y="739.5" width="17.45" height="14.54"/><rect class="cls-7" x="826.81" y="760.83" width="17.45" height="14.54"/><rect class="cls-7" x="854.93" y="760.83" width="17.45" height="14.54"/><rect class="cls-7" x="826.81" y="781.19" width="17.45" height="14.54"/><rect class="cls-7" x="854.93" y="781.19" width="17.45" height="14.54"/><rect class="cls-7" x="826.81" y="802.52" width="17.45" height="14.54"/><rect class="cls-7" x="854.93" y="802.52" width="17.45" height="14.54"/><polygon class="cls-3" points="1023.88 838.39 1023.88 349.19 1090.65 395.64 1090.65 838.39 1023.88 838.39"/><line class="cls-7" x1="1031.14" y1="420.32" x2="1080.49" y2="420.32"/><line class="cls-7" x1="1031.86" y1="445.77" x2="1081.22" y2="445.77"/><line class="cls-7" x1="1031.14" y1="471.22" x2="1080.49" y2="471.22"/><line class="cls-7" x1="1031.86" y1="496.67" x2="1081.22" y2="496.67"/><line class="cls-7" x1="1031.14" y1="522.13" x2="1080.49" y2="522.13"/><line class="cls-7" x1="1031.86" y1="547.58" x2="1081.22" y2="547.58"/><line class="cls-7" x1="1031.14" y1="573.03" x2="1080.49" y2="573.03"/><line class="cls-7" x1="1031.86" y1="598.48" x2="1081.22" y2="598.48"/><line class="cls-7" x1="1031.14" y1="623.94" x2="1080.49" y2="623.94"/><line class="cls-7" x1="1031.86" y1="649.39" x2="1081.22" y2="649.39"/><line class="cls-7" x1="1031.14" y1="674.84" x2="1080.49" y2="674.84"/><line class="cls-7" x1="1031.86" y1="700.29" x2="1081.22" y2="700.29"/><line class="cls-7" x1="1031.14" y1="725.75" x2="1080.49" y2="725.75"/><line class="cls-7" x1="1031.86" y1="751.2" x2="1081.22" y2="751.2"/><line class="cls-7" x1="1031.14" y1="776.65" x2="1080.49" y2="776.65"/><line class="cls-7" x1="1031.86" y1="802.1" x2="1081.22" y2="802.1"/><polygon class="cls-3" points="1174.85 838.39 1174.85 526.29 1190.82 526.29 1190.82 495.8 1216.95 495.8 1216.95 475.48 1247.43 475.48 1247.43 494.35 1270.66 494.35 1270.66 527.74 1288.08 527.74 1288.08 838.39 1174.85 838.39"/><rect class="cls-4" x="1196.62" y="539.35" width="14.08" height="14.08"/><rect class="cls-4" x="1224.79" y="539.35" width="14.08" height="14.08"/><rect class="cls-4" x="1252.95" y="539.35" width="14.08" height="14.08"/><rect class="cls-4" x="1196.62" y="564.19" width="14.08" height="14.08"/><rect class="cls-4" x="1224.79" y="564.19" width="14.08" height="14.08"/><rect class="cls-4" x="1252.95" y="564.19" width="14.08" height="14.08"/><rect class="cls-4" x="1196.62" y="589.03" width="14.08" height="14.08"/><rect class="cls-4" x="1224.79" y="589.03" width="14.08" height="14.08"/><rect class="cls-4" x="1252.95" y="589.03" width="14.08" height="14.08"/><rect class="cls-4" x="1196.62" y="613.87" width="14.08" height="14.08"/><rect class="cls-4" x="1224.79" y="613.87" width="14.08" height="14.08"/><rect class="cls-4" x="1252.95" y="613.87" width="14.08" height="14.08"/><rect class="cls-4" x="1196.62" y="638.71" width="14.08" height="14.08"/><rect class="cls-4" x="1224.79" y="638.71" width="14.08" height="14.08"/><rect class="cls-4" x="1252.95" y="638.71" width="14.08" height="14.08"/><rect class="cls-4" x="1196.62" y="663.55" width="14.08" height="14.08"/><rect class="cls-4" x="1224.79" y="663.55" width="14.08" height="14.08"/><rect class="cls-4" x="1252.95" y="663.55" width="14.08" height="14.08"/><rect class="cls-4" x="1196.62" y="688.39" width="14.08" height="14.08"/><rect class="cls-4" x="1224.79" y="688.39" width="14.08" height="14.08"/><rect class="cls-4" x="1252.95" y="688.39" width="14.08" height="14.08"/><rect class="cls-4" x="1196.62" y="713.23" width="14.08" height="14.08"/><rect class="cls-4" x="1224.79" y="713.23" width="14.08" height="14.08"/><rect class="cls-4" x="1252.95" y="713.23" width="14.08" height="14.08"/><rect class="cls-4" x="1196.62" y="738.07" width="14.08" height="14.08"/><rect class="cls-4" x="1224.79" y="738.07" width="14.08" height="14.08"/><rect class="cls-4" x="1252.95" y="738.07" width="14.08" height="14.08"/><rect class="cls-4" x="1196.62" y="762.91" width="14.08" height="14.08"/><rect class="cls-4" x="1224.79" y="762.91" width="14.08" height="14.08"/><rect class="cls-4" x="1252.95" y="762.91" width="14.08" height="14.08"/><polygon class="cls-3" points="164.5 838.39 164.5 762.91 238.53 729.52 287.89 751.29 287.89 736.78 292.97 736.78 292.97 753.82 319.83 765.81 319.83 838.39 164.5 838.39"/><rect class="cls-7" x="179.02" y="783.23" width="37.74" height="37.74"/><rect class="cls-7" x="267.57" y="783.23" width="37.74" height="37.74"/><rect class="cls-7" x="231.28" y="783.23" width="21.77" height="37.74"/><polygon class="cls-3" points="1250.34 838.39 1250.34 649.68 1241.63 649.68 1241.63 629.36 1354.85 629.36 1354.85 649.68 1346.14 649.68 1346.14 838.39 1250.34 838.39"/><rect class="cls-2" x="1295.34" y="664.2" width="11.61" height="11.61"/><rect class="cls-2" x="1272.11" y="686.84" width="11.61" height="11.61"/><rect class="cls-2" x="1318.56" y="709.49" width="11.61" height="11.61"/><rect class="cls-2" x="1272.11" y="732.13" width="11.61" height="11.61"/><rect class="cls-2" x="1295.34" y="732.13" width="11.61" height="11.61"/><rect class="cls-2" x="1318.56" y="754.78" width="11.61" height="11.61"/><rect class="cls-2" x="1295.34" y="777.42" width="11.61" height="11.61"/><rect class="cls-7" x="1269.21" y="661.29" width="11.61" height="11.61"/><rect class="cls-7" x="1292.43" y="661.29" width="11.61" height="11.61"/><rect class="cls-7" x="1315.66" y="661.29" width="11.61" height="11.61"/><rect class="cls-7" x="1269.21" y="683.94" width="11.61" height="11.61"/><rect class="cls-7" x="1292.43" y="683.94" width="11.61" height="11.61"/><rect class="cls-7" x="1315.66" y="683.94" width="11.61" height="11.61"/><rect class="cls-7" x="1269.21" y="706.58" width="11.61" height="11.61"/><rect class="cls-7" x="1292.43" y="706.58" width="11.61" height="11.61"/><rect class="cls-7" x="1315.66" y="706.58" width="11.61" height="11.61"/><rect class="cls-7" x="1269.21" y="729.23" width="11.61" height="11.61"/><rect class="cls-7" x="1292.43" y="729.23" width="11.61" height="11.61"/><rect class="cls-7" x="1315.66" y="729.23" width="11.61" height="11.61"/><rect class="cls-7" x="1269.21" y="751.88" width="11.61" height="11.61"/><rect class="cls-7" x="1292.43" y="751.88" width="11.61" height="11.61"/><rect class="cls-7" x="1315.66" y="751.88" width="11.61" height="11.61"/><rect class="cls-7" x="1269.21" y="774.52" width="11.61" height="11.61"/><rect class="cls-7" x="1292.43" y="774.52" width="11.61" height="11.61"/><rect class="cls-7" x="1315.66" y="774.52" width="11.61" height="11.61"/><path class="cls-8" d="M659.09,817s-26.3,2.24-30.83-19a15.39,15.39,0,0,1,.86-9c3.48-8.49,13.24-27.43,31.18-27.43,16.78,0,25.82,18.71,29.48,28.8A15.58,15.58,0,0,1,688,804.41C683.85,810.42,675.44,817.57,659.09,817Z"/><line class="cls-9" x1="659.09" y1="837.67" x2="659.09" y2="782.03"/><line class="cls-9" x1="643.36" y1="800.17" x2="659.09" y2="809.85"/><line class="cls-9" x1="672.39" y1="790.49" x2="659.09" y2="802.04"/><path class="cls-3" d="M515.8,812.81s-31.56,2.68-37-22.85a18.38,18.38,0,0,1,1-10.84c4.17-10.18,15.89-32.91,37.41-32.91,20.14,0,31,22.45,35.38,34.56a18.67,18.67,0,0,1-2.12,17C545.52,805,535.42,813.55,515.8,812.81Z"/><line class="cls-7" x1="515.8" y1="837.67" x2="515.8" y2="770.89"/><line class="cls-7" x1="496.93" y1="792.67" x2="515.8" y2="804.28"/><line class="cls-7" x1="531.77" y1="781.05" x2="515.8" y2="794.91"/><polygon class="cls-3" points="938.23 838.39 938.23 770.17 922.26 770.17 922.26 748.39 1019.52 748.39 1019.52 726.62 1112.43 726.62 1112.43 749.84 1208.24 749.84 1208.24 768.71 1195.17 768.71 1195.17 838.39 938.23 838.39"/><rect class="cls-3" x="971.62" y="789.04" width="21.77" height="36.29"/><rect class="cls-3" x="1002.1" y="789.04" width="21.77" height="36.29"/><rect class="cls-3" x="1042.75" y="789.04" width="21.77" height="36.29"/><rect class="cls-3" x="1073.23" y="789.04" width="21.77" height="36.29"/><rect class="cls-3" x="1116.78" y="789.04" width="21.77" height="36.29"/><rect class="cls-3" x="1147.27" y="789.04" width="21.77" height="36.29"/><path class="cls-3" d="M887.42,838.39H957.1s0-14.51-13.06-16c0,0-5.81-13.07-21.78-8.71,0,0-16-8.71-23.22,4.35C899,818.07,881.62,823.88,887.42,838.39Z"/><path class="cls-3" d="M592.74,838.39h69.68s0-14.51-13.07-16c0,0-5.8-13.07-21.77-8.71,0,0-16-8.71-23.23,4.35C604.35,818.07,586.93,823.88,592.74,838.39Z"/><path class="cls-3" d="M1169,710.65S1189.3,715,1190.75,760,1169,803.45,1169,803.45h.06S1145.82,805,1147.27,760,1169,710.65,1169,710.65Z"/><line class="cls-3" x1="1169.04" y1="839.12" x2="1169.04" y2="747.67"/><path class="cls-10" d="M1194.76,755.55s13.22,2.83,14.16,32.1-14.16,28.27-14.16,28.27h0s-15.11,1-14.17-28.27,14.17-32.1,14.17-32.1Z"/><path class="cls-2" d="M1199.11,758.45s13.22,2.83,14.17,32.11-14.17,28.26-14.17,28.26h0s-15.11,1-14.16-28.26,14.16-32.11,14.16-32.11Z"/><line class="cls-10" x1="1194.8" y1="839.12" x2="1194.8" y2="779.63"/><g class="cls-11"><path class="cls-12" d="M660.23,607.42c26,.86,52,1.55,77.94,2.26a1.24,1.24,0,0,0-.59-.73c-.88-.73-1.77-1.44-2.69-2.13-.74-.56-2.51-2.39-3.61-2.42-25.83-.7-51.63-1.36-77.43-2.72a1.22,1.22,0,0,0,.52.76q1.21,1.18,2.49,2.31C657.46,605.3,659.21,607.39,660.23,607.42Z"/><path class="cls-12" d="M661.08,608.93c26,.83,52,1.52,78,2.22a1.44,1.44,0,0,0-.6-.8c-.91-.84-1.83-1.67-2.77-2.47-.65-.56-2.62-2.82-3.72-2.85-25.82-.7-51.62-1.34-77.42-2.69a1.47,1.47,0,0,0,.53.84c.83.9,1.67,1.78,2.54,2.64s1.73,1.73,2.62,2.57A1.48,1.48,0,0,0,661.08,608.93Z"/><path class="cls-12" d="M662.11,608.49c25.93.36,51.85,1.15,77.78,1.85.74,0-.24-1-.58-1-25.87-.7-51.74-1.53-77.62-1.72C661,607.62,661.76,608.49,662.11,608.49Z"/><path class="cls-12" d="M661.75,612.43c26,.62,52,1.35,78,2.05.49,0-.93-2.14-1.45-2.15-25.93-.7-51.85-1.43-77.77-2C660,610.27,661.27,612.42,661.75,612.43Z"/><path class="cls-12" d="M660.59,609.29q39,1.22,78,2.21a1.83,1.83,0,0,0-.65-.93c-1-1-2-2-3-3s-2-2-3.06-2.9a1.81,1.81,0,0,0-1-.63c-25.78-.7-51.53-1.35-77.28-2.77a1.79,1.79,0,0,0,.57,1c.88,1.09,1.79,2.16,2.71,3.21s1.84,2.1,2.8,3.12A1.75,1.75,0,0,0,660.59,609.29Z"/><path class="cls-12" d="M660.48,608c26,.84,52,1.53,77.95,2.24a1.52,1.52,0,0,0-.65-.81c-1-.84-1.93-1.65-2.92-2.45-.73-.59-2.76-2.8-3.92-2.83-25.81-.7-51.6-1.36-77.39-2.76a1.48,1.48,0,0,0,.58.85c.88.9,1.78,1.79,2.7,2.65s1.83,1.74,2.78,2.57A1.47,1.47,0,0,0,660.48,608Z"/><path class="cls-12" d="M661,610.64q39,1.11,77.9,2.14c.12,0-1.89-2.36-1.85-2.32-.42-.44-1.49-1.93-2.25-2-25.82-.7-51.62-1.3-77.42-2.49A21.71,21.71,0,0,0,659,608.5C659.33,608.9,660.34,610.62,661,610.64Z"/><path class="cls-12" d="M662.56,609.28c26,.57,51.94,1.31,77.9,2,.48,0-.2-.65-.2-.64a2.77,2.77,0,0,0-1.35-.89c-25.9-.7-51.79-1.45-77.7-2C660.77,607.79,662.09,609.27,662.56,609.28Z"/><path class="cls-12" d="M661.19,610.65q39,1.19,77.94,2.19a1.37,1.37,0,0,0-.5-.83c-.79-.88-1.6-1.74-2.42-2.59-.5-.51-2.34-3-3.32-3-25.76-.7-51.51-1.31-77.25-2.68a1.32,1.32,0,0,0,.41.87c.7.94,1.41,1.86,2.15,2.77C658.56,607.81,660.3,610.62,661.19,610.65Z"/><path class="cls-12" d="M660.4,608.57q39,1.24,78,2.23a1.66,1.66,0,0,0-.64-.87c-1-.92-1.92-1.82-2.91-2.71s-2-1.77-3-2.63a1.65,1.65,0,0,0-.93-.54c-25.79-.7-51.56-1.36-77.32-2.77a1.6,1.6,0,0,0,.56.91c.87,1,1.75,2,2.66,2.92s1.81,1.92,2.75,2.85A1.61,1.61,0,0,0,660.4,608.57Z"/><path class="cls-12" d="M661.48,610q39,1.2,77.94,2.2a1.15,1.15,0,0,0-.49-.75c-.77-.77-1.55-1.53-2.36-2.26-.56-.52-2.24-2.58-3.21-2.61-25.8-.7-51.58-1.31-77.35-2.64a1.17,1.17,0,0,0,.42.78c.68.83,1.39,1.64,2.11,2.43C659,607.66,660.59,610,661.48,610Z"/><path class="cls-12" d="M662.22,612.86c26,.62,52,1.35,78,2,.5,0-.87-2.13-1.37-2.14-26-.7-51.94-1.43-77.92-2C660.44,610.73,661.75,612.85,662.22,612.86Z"/></g><g class="cls-11"><path class="cls-12" d="M743.29,668.77c26-.55,52-1.27,78-2a1.3,1.3,0,0,0-.64-.69c-.93-.68-1.87-1.34-2.83-2-.77-.53-2.65-2.25-3.77-2.22-25.83.7-51.63,1.44-77.47,1.48a1.25,1.25,0,0,0,.57.73c.87.75,1.74,1.47,2.64,2.18C740.38,666.8,742.26,668.79,743.29,668.77Z"/><path class="cls-12" d="M744.15,670.25c26-.58,52-1.3,78-2a1.42,1.42,0,0,0-.64-.77c-1-.8-1.91-1.57-2.89-2.32-.69-.53-2.78-2.69-3.87-2.66-25.83.7-51.62,1.46-77.46,1.51a1.42,1.42,0,0,0,.58.81c.87.86,1.76,1.69,2.67,2.51s1.82,1.64,2.76,2.43A1.47,1.47,0,0,0,744.15,670.25Z"/><path class="cls-12" d="M745.26,669.71c25.92-1,51.85-1.66,77.78-2.36.75,0-.33-1-.67-1-25.87.7-51.74,1.28-77.59,2.48C744.11,668.88,744.92,669.73,745.26,669.71Z"/><path class="cls-12" d="M744.92,673.7c26-.81,52-1.49,78-2.2.5,0-1-2-1.48-2-25.93.7-51.87,1.38-77.8,2.21C743.08,671.7,744.46,673.71,744.92,673.7Z"/><path class="cls-12" d="M743.64,670.6q39-.9,78-2a1.75,1.75,0,0,0-.69-.9c-1-1-2.07-1.9-3.12-2.82s-2.12-1.84-3.2-2.73a1.82,1.82,0,0,0-1-.57c-25.77.69-51.52,1.44-77.31,1.42a1.8,1.8,0,0,0,.61,1c.94,1,1.89,2,2.87,3s1.94,2,3,3A1.71,1.71,0,0,0,743.64,670.6Z"/><path class="cls-12" d="M743.54,669.31c26-.57,52-1.29,78-2a1.54,1.54,0,0,0-.7-.77c-1-.79-2-1.55-3.07-2.3-.76-.55-2.92-2.65-4.08-2.62-25.82.7-51.6,1.45-77.43,1.45a1.54,1.54,0,0,0,.63.82c.93.85,1.88,1.69,2.85,2.5s1.94,1.64,2.93,2.42A1.5,1.5,0,0,0,743.54,669.31Z"/><path class="cls-12" d="M744.14,671.92q38.94-1,77.9-2.09c.12,0-2-2.24-1.95-2.2-.43-.41-1.56-1.82-2.32-1.8-25.81.7-51.61,1.49-77.44,1.71a21.43,21.43,0,0,0,1.7,2.37C742.36,670.29,743.44,671.93,744.14,671.92Z"/><path class="cls-12" d="M745.7,670.5c26-.83,51.92-1.5,77.88-2.21.49,0-.27-.65-.25-.63a2.84,2.84,0,0,0-1.45-.83c-25.88.71-51.77,1.36-77.65,2.24C743.8,669.09,745.22,670.52,745.7,670.5Z"/><path class="cls-12" d="M744.26,671.93q39-.93,77.94-2a1.3,1.3,0,0,0-.53-.79c-.82-.84-1.66-1.65-2.53-2.45-.51-.48-2.46-2.87-3.43-2.84-25.76.69-51.51,1.48-77.28,1.52a1.3,1.3,0,0,0,.45.83c.73.9,1.49,1.78,2.26,2.65C741.52,669.24,743.39,672,744.26,671.93Z"/><path class="cls-12" d="M743.45,669.9q39-.87,78-2a1.64,1.64,0,0,0-.69-.83c-1-.87-2-1.72-3.05-2.55s-2.07-1.66-3.13-2.46a1.66,1.66,0,0,0-1-.5c-25.79.7-51.55,1.45-77.35,1.43a1.58,1.58,0,0,0,.6.88c.92,1,1.86,1.87,2.82,2.78s1.91,1.81,2.9,2.68A1.59,1.59,0,0,0,743.45,669.9Z"/><path class="cls-12" d="M744.56,671.33q39-.93,78-2a1.19,1.19,0,0,0-.53-.72q-1.2-1.1-2.46-2.13c-.58-.49-2.36-2.47-3.34-2.44-25.79.7-51.56,1.49-77.36,1.55a1.13,1.13,0,0,0,.44.76c.73.79,1.47,1.57,2.24,2.32C741.94,669.08,743.68,671.35,744.56,671.33Z"/><path class="cls-12" d="M745.39,674.12q39-1.2,78-2.19c.52,0-.91-2-1.39-2-26,.7-52,1.38-78,2.21C743.54,672.13,744.92,674.13,745.39,674.12Z"/></g><g class="cls-11"><path class="cls-12" d="M663.81,693.79c18,.06,36-.14,54,0a1.23,1.23,0,0,0-.63-.7c-.91-.7-1.84-1.38-2.79-2s-2.56-2.24-3.73-2.28c-9-.35-17.94-.07-26.91-.08s-17.68-.21-26.52-.44a1.24,1.24,0,0,0,.55.75c.84.77,1.69,1.51,2.56,2.24C661,691.74,662.78,693.78,663.81,693.79Z"/><path class="cls-12" d="M664.67,695.27c18,.05,36-.14,54,0a1.42,1.42,0,0,0-.63-.78c-.94-.81-1.89-1.6-2.87-2.36-.74-.6-2.68-2.67-3.83-2.72-9-.35-17.94-.07-26.91-.08s-17.67-.19-26.51-.41a1.36,1.36,0,0,0,.56.82q1.28,1.32,2.61,2.58c.88.85,1.78,1.68,2.69,2.49A1.4,1.4,0,0,0,664.67,695.27Z"/><path class="cls-12" d="M665.74,694.79c17.94-.47,35.9-.4,53.85-.44.75,0-.28-1-.63-1-17.89,0-35.8-.12-53.68.56C664.62,694,665.39,694.79,665.74,694.79Z"/><path class="cls-12" d="M665.39,698.75c18-.16,36-.21,54.05-.25.49,0-1-2.09-1.47-2.09-18,.05-35.91.08-53.86.27C663.57,696.68,664.92,698.76,665.39,698.75Z"/><path class="cls-12" d="M664.16,695.63c18,0,36-.14,54-.06a1.75,1.75,0,0,0-.68-.91c-1-1-2-1.94-3.1-2.87s-2.09-1.88-3.16-2.79a1.89,1.89,0,0,0-1-.59c-9-.38-17.92-.08-26.88-.09-8.8,0-17.59-.23-26.39-.48a1.75,1.75,0,0,0,.6,1q1.36,1.59,2.79,3.12c.94,1,1.9,2.05,2.88,3A1.77,1.77,0,0,0,664.16,695.63Z"/><path class="cls-12" d="M664.06,694.33c18,0,36-.14,54,0a1.54,1.54,0,0,0-.68-.79q-1.5-1.2-3-2.34c-.83-.62-2.82-2.63-4.05-2.68-9-.37-17.93-.08-26.9-.09s-17.66-.23-26.49-.47a1.54,1.54,0,0,0,.61.84c.91.87,1.83,1.73,2.78,2.57s1.89,1.68,2.86,2.49A1.53,1.53,0,0,0,664.06,694.33Z"/><path class="cls-12" d="M664.64,697c18-.07,36-.23,53.93-.14.1,0-2-2.25-2-2.22-.48-.46-1.55-1.81-2.34-1.83-8.95-.3-17.91-.07-26.86-.07s-17.67-.08-26.51-.23a22.48,22.48,0,0,0,1.65,2.42C662.89,695.28,663.94,697,664.64,697Z"/><path class="cls-12" d="M666.18,695.57c18-.2,36-.23,54-.27.48,0-.24-.66-.23-.65-.3-.29-1-.85-1.41-.84-17.91,0-35.83,0-53.74.31C664.33,694.12,665.71,695.58,666.18,695.57Z"/><path class="cls-12" d="M664.77,697c18,0,36-.17,54-.08a1.38,1.38,0,0,0-.53-.81c-.82-.84-1.66-1.67-2.52-2.48-.58-.55-2.4-2.84-3.43-2.89-8.95-.38-17.9-.09-26.85-.09-8.79,0-17.57-.18-26.36-.4a1.28,1.28,0,0,0,.43.85c.72.92,1.45,1.82,2.21,2.7C662.08,694.21,663.9,697,664.77,697Z"/><path class="cls-12" d="M664,694.92c18,.05,36-.14,54,0a1.62,1.62,0,0,0-.67-.84c-1-.89-2-1.75-3-2.6s-2-1.69-3.1-2.51a1.62,1.62,0,0,0-.95-.51c-9-.38-17.92-.08-26.89-.09-8.81,0-17.61-.23-26.42-.48a1.63,1.63,0,0,0,.58.9c.9,1,1.82,1.91,2.75,2.84s1.87,1.85,2.83,2.76A1.64,1.64,0,0,0,664,694.92Z"/><path class="cls-12" d="M665.07,696.37c18,0,36-.18,54-.09a1.14,1.14,0,0,0-.52-.72c-.79-.75-1.61-1.47-2.45-2.17-.64-.55-2.29-2.43-3.32-2.47-9-.37-17.92-.09-26.88-.09-8.81,0-17.62-.16-26.43-.37a1.14,1.14,0,0,0,.43.77c.71.81,1.43,1.6,2.18,2.37C662.5,694.06,664.18,696.37,665.07,696.37Z"/><path class="cls-12" d="M665.86,699.17c18-.16,36.07-.2,54.11-.25.51,0-.89-2.08-1.38-2.08-18,0-36,.08-54,.28C664,697.12,665.39,699.18,665.86,699.17Z"/></g><g class="cls-11"><path class="cls-12" d="M667.56,797.21l9-14.92a1.67,1.67,0,0,0-1.06.22c-1.24.5-2.46,1-3.68,1.55s-2.44,1.08-3.64,1.66a1.63,1.63,0,0,0-.89.62l-9.08,14.43a1.58,1.58,0,0,0,1.06-.17c1.26-.42,2.5-.87,3.74-1.35s2.47-1,3.69-1.46A1.6,1.6,0,0,0,667.56,797.21Z"/><path class="cls-12" d="M668.14,798.32l9-14.91a1.44,1.44,0,0,0-1,.07c-1.2.31-2.39.65-3.57,1-.78.23-3.85.71-4.41,1.61l-9,14.35a1.38,1.38,0,0,0,1,0c1.21-.23,2.4-.5,3.59-.78s2.39-.58,3.57-.9A1.43,1.43,0,0,0,668.14,798.32Z"/><path class="cls-12" d="M669.54,795.56l8.8-14.86c.29-.47-.89.06-.78,0a4,4,0,0,0-1.67,1.11l-8.7,14.59c-.27.45.79.05.74.07C668.38,796.32,669.28,796,669.54,795.56Z"/><path class="cls-12" d="M669.89,799.78l8.57-15c.28-.5-1.24-.45-1.41-.15l-8.34,15C668.44,800.1,669.72,800.07,669.89,799.78Z"/><path class="cls-12" d="M667.34,798.83,676.28,784a1.55,1.55,0,0,0-1.06,0c-1.27.29-2.53.6-3.79.94s-2.52.67-3.77,1a1.57,1.57,0,0,0-.94.47l-9,14.28a1.58,1.58,0,0,0,1,0c1.28-.21,2.56-.44,3.83-.7s2.53-.51,3.79-.8A1.54,1.54,0,0,0,667.34,798.83Z"/><path class="cls-12" d="M667.69,797.72l8.94-14.93a1.76,1.76,0,0,0-1.1.19c-1.31.44-2.61.91-3.9,1.4s-2.59,1-3.86,1.52a1.78,1.78,0,0,0-1,.59l-9.07,14.37a1.71,1.71,0,0,0,1.11-.13c1.32-.37,2.64-.76,3.95-1.18s2.62-.84,3.91-1.3A1.78,1.78,0,0,0,667.69,797.72Z"/><path class="cls-12" d="M668.33,799.11l8.8-14.7c.32-.53-1.12-.12-1.14-.12-.57.12-2.66.31-3,.88l-9,14.59c-.13.2,2.32-.07,2.23-.06C666.65,799.63,668,799.63,668.33,799.11Z"/><path class="cls-12" d="M669.85,796.78l8.86-14.87c.31-.52-1,0-.94,0-.57.22-1.87.58-2.22,1.15l-8.82,14.55c-.29.49.94.08.91.09C668.13,797.57,669.55,797.28,669.85,796.78Z"/><path class="cls-12" d="M668.09,799.5,677,784.66c0-.07-3.62.42-3.58.42-.58.11-3,.26-3.47.95L661,800.26a35.28,35.28,0,0,0,3.56-.11C665.07,800.1,667.71,800.14,668.09,799.5Z"/><path class="cls-12" d="M667.35,798.29l8.95-14.9a1.65,1.65,0,0,0-1.07.12q-1.92.56-3.81,1.17c-1.26.4-2.52.83-3.76,1.28a1.64,1.64,0,0,0-.94.53l-9.05,14.33a1.64,1.64,0,0,0,1.07-.06c1.29-.29,2.57-.6,3.84-.94s2.55-.68,3.81-1.05A1.58,1.58,0,0,0,667.35,798.29Z"/><path class="cls-12" d="M668.54,798.92l8.89-14.86a.93.93,0,0,0-.8,0c-1,.19-1.9.4-2.84.64-.64.16-3,.41-3.51,1.15l-8.93,14.28c0,.07,3.69-.33,3.64-.32C665.53,799.69,668.13,799.6,668.54,798.92Z"/><path class="cls-12" d="M670.62,800.13l8.31-15c.28-.5-1.14-.5-1.3-.2l-7.94,15C669.44,800.38,670.46,800.42,670.62,800.13Z"/></g><g class="cls-11"><path class="cls-12" d="M642.42,802.78a43.26,43.26,0,0,1,13.59,8.5c.76.62-.7-2.38-.53-2-.55-1.18-1.11-2.36-1.69-3.53a9.68,9.68,0,0,0-1-1.77,34.26,34.26,0,0,0-4.42-3.47,53.18,53.18,0,0,0-9.65-5.21,1.16,1.16,0,0,0,.19.88c.45,1,.92,2,1.41,3C640.7,799.91,641.49,802.34,642.42,802.78Z"/><path class="cls-12" d="M643.11,804.42a43.63,43.63,0,0,1,13.59,8.5c.81.66-.76-2.56-.59-2.18-.59-1.29-1.19-2.58-1.82-3.86a12,12,0,0,0-1.06-2c-1.44-1.22-2.91-2.4-4.43-3.51a52.94,52.94,0,0,0-9.65-5.23,1.43,1.43,0,0,0,.22,1c.48,1.1,1,2.2,1.52,3.28C641.26,801.19,642.13,804,643.11,804.42Z"/><path class="cls-12" d="M643.6,804.79a30.75,30.75,0,0,1,7.08,3.33A24.66,24.66,0,0,1,657,812.8c.49.4.31-.79,0-1a22.5,22.5,0,0,0-6.4-4.61,30.58,30.58,0,0,0-7-3.12C643.22,803.86,643.26,804.65,643.6,804.79Z"/><path class="cls-12" d="M643.14,808.16a32.82,32.82,0,0,1,7.28,3.76,32,32,0,0,1,6.4,4.84c.46.38,0-1,.09-.89a4.85,4.85,0,0,0-.93-2.14,52.55,52.55,0,0,0-13.55-8.42c-.48-.22-.14.79-.12.84C642.4,806.55,642.7,808,643.14,808.16Z"/><path class="cls-12" d="M642.69,804.86a33.39,33.39,0,0,1,7.34,3.8,31.85,31.85,0,0,1,6.47,4.86,1.86,1.86,0,0,0-.23-1.14c-.49-1.34-1-2.68-1.56-4s-1.09-2.65-1.67-4a1.86,1.86,0,0,0-.63-1,32.51,32.51,0,0,0-6.53-4.78,39.58,39.58,0,0,0-7.28-3.78,1.78,1.78,0,0,0,.23,1.12c.49,1.34,1,2.66,1.56,4s1.09,2.63,1.67,3.93A1.81,1.81,0,0,0,642.69,804.86Z"/><path class="cls-12" d="M642.63,803.36a43.49,43.49,0,0,1,13.58,8.47c.82.67-.79-2.61-.62-2.23-.6-1.33-1.23-2.65-1.86-4a13,13,0,0,0-1.09-2q-2.19-1.82-4.45-3.51a53.18,53.18,0,0,0-9.65-5.21,1.38,1.38,0,0,0,.23,1c.5,1.13,1,2.25,1.57,3.36C640.72,800,641.63,802.89,642.63,803.36Z"/><path class="cls-12" d="M642.83,806.38a41.21,41.21,0,0,1,13.53,8.48c.64.53-.28-1.85-.18-1.58-.34-.93-.69-1.86-1.06-2.77a5.64,5.64,0,0,0-.67-1.4,42.14,42.14,0,0,0-8.69-6.17,27.7,27.7,0,0,0-5.06-2.43c-.09,0,.82,3.07.81,3C641.71,804.1,642.12,806.05,642.83,806.38Z"/><path class="cls-12" d="M644.06,805.32l13.56,8.4c.65.54.07-1.3-.22-1.53a53.7,53.7,0,0,0-6.6-4.87c-3.69-2.17-1.92-1.19-7.32-3.57C643.07,803.57,643.68,805.15,644.06,805.32Z"/><path class="cls-12" d="M643.11,806.35a32.61,32.61,0,0,1,7.32,3.8,31.4,31.4,0,0,1,6.44,4.86,1.44,1.44,0,0,0-.16-1q-.63-1.74-1.32-3.45c-.44-1.09-1-3.41-2-4.23a31,31,0,0,0-6.43-4.78,37.44,37.44,0,0,0-7.2-3.78,1.42,1.42,0,0,0,.15,1c.4,1.14.82,2.28,1.27,3.41C641.45,802.86,642.2,805.93,643.11,806.35Z"/><path class="cls-12" d="M642.55,804.05a33.58,33.58,0,0,1,7.34,3.79,32.07,32.07,0,0,1,6.46,4.86,1.6,1.6,0,0,0-.22-1.06c-.48-1.24-1-2.47-1.51-3.7s-1.13-3.67-2.23-4.54a32.14,32.14,0,0,0-6.54-4.77,40,40,0,0,0-7.29-3.79,1.67,1.67,0,0,0,.22,1.06c.48,1.23,1,2.45,1.52,3.66s1.06,2.42,1.63,3.61A1.64,1.64,0,0,0,642.55,804.05Z"/><path class="cls-12" d="M643.38,805.67a42.65,42.65,0,0,1,13.55,8.49c.75.62-.63-2.35-.48-2-.51-1.18-1-2.35-1.58-3.52a10.06,10.06,0,0,0-1-1.77,39.42,39.42,0,0,0-4.35-3.5,50.45,50.45,0,0,0-9.54-5.21,1.13,1.13,0,0,0,.15.87c.4,1,.83,2,1.28,3C641.77,802.74,642.49,805.26,643.38,805.67Z"/><path class="cls-12" d="M643.61,808.63a32.3,32.3,0,0,1,7.29,3.77,33.42,33.42,0,0,1,6.45,4.85c.45.37.07-1,.1-.84a4.35,4.35,0,0,0-.88-2,37.69,37.69,0,0,0-6.55-4.77,34.8,34.8,0,0,0-7.16-3.73c-.48-.23-.12.78-.11.82C642.86,807.09,643.16,808.42,643.61,808.63Z"/></g><g class="cls-11"><path class="cls-12" d="M1037.25,602.23q24.06.13,48.12.12a1.25,1.25,0,0,0-.6-.72c-.9-.72-1.81-1.41-2.73-2.09-.74-.54-2.57-2.36-3.66-2.36-15.92,0-31.79-.11-47.7-.52a1.28,1.28,0,0,0,.55.75c.84.77,1.69,1.52,2.56,2.25C1034.41,600.18,1036.23,602.23,1037.25,602.23Z"/><path class="cls-12" d="M1038.11,603.72q24.08.12,48.15.09a1.4,1.4,0,0,0-.61-.79q-1.37-1.24-2.79-2.43c-.65-.54-2.67-2.8-3.76-2.8-15.91,0-31.78-.09-47.69-.49a1.46,1.46,0,0,0,.56.83c.85.88,1.72,1.74,2.6,2.58s1.78,1.68,2.69,2.49A1.42,1.42,0,0,0,1038.11,603.72Z"/><path class="cls-12" d="M1039.18,603.24c16-.26,31.94-.26,47.92-.26.75,0-.28-1-.62-1-15.93,0-31.82,0-47.75.38C1038.07,602.39,1038.84,603.24,1039.18,603.24Z"/><path class="cls-12" d="M1038.83,607.2q24.06-.11,48.12-.07c.49,0-1-2.09-1.47-2.09q-24,0-47.92.08C1037,605.12,1038.36,607.2,1038.83,607.2Z"/><path class="cls-12" d="M1037.61,604.08q24.06.1,48.13.08a1.84,1.84,0,0,0-.66-.92c-1-1-2-2-3-3s-2-1.92-3.09-2.85a1.79,1.79,0,0,0-1-.62c-15.88,0-31.7-.11-47.57-.55a1.8,1.8,0,0,0,.59,1c.91,1,1.84,2.1,2.79,3.12s1.89,2,2.87,3A1.77,1.77,0,0,0,1037.61,604.08Z"/><path class="cls-12" d="M1037.51,602.78q24.06.12,48.12.1a1.52,1.52,0,0,0-.66-.8c-1-.82-2-1.63-3-2.41-.71-.56-2.82-2.77-4-2.77-15.91,0-31.76-.12-47.66-.55a1.47,1.47,0,0,0,.6.84c.91.88,1.83,1.74,2.78,2.58s1.88,1.68,2.85,2.49A1.6,1.6,0,0,0,1037.51,602.78Z"/><path class="cls-12" d="M1038.08,605.41l48.08,0c.12,0-1.9-2.33-1.86-2.29-.41-.42-1.5-1.91-2.25-1.91-15.9,0-31.78,0-47.68-.31a22.39,22.39,0,0,0,1.64,2.42C1036.34,603.73,1037.39,605.41,1038.08,605.41Z"/><path class="cls-12" d="M1039.63,604c16-.09,32-.09,48-.09.48,0-.24-.65-.23-.64-.3-.3-1-.86-1.4-.86-15.94,0-31.87,0-47.81.14C1037.78,602.57,1039.15,604,1039.63,604Z"/><path class="cls-12" d="M1038.22,605.42q24.06.08,48.11.06a1.37,1.37,0,0,0-.5-.82c-.79-.87-1.6-1.72-2.44-2.55-.48-.49-2.37-3-3.32-3-15.86,0-31.68-.08-47.54-.48a1.28,1.28,0,0,0,.43.85c.71.92,1.45,1.83,2.2,2.71C1035.54,602.66,1037.34,605.42,1038.22,605.42Z"/><path class="cls-12" d="M1037.42,603.37q24.06.12,48.12.1a1.58,1.58,0,0,0-.65-.86q-1.44-1.36-2.94-2.67t-3-2.58a1.62,1.62,0,0,0-.93-.54c-15.89,0-31.72-.11-47.61-.55a1.68,1.68,0,0,0,.59.9c.89,1,1.81,1.91,2.74,2.84s1.86,1.87,2.82,2.77A1.66,1.66,0,0,0,1037.42,603.37Z"/><path class="cls-12" d="M1038.52,604.82q24,.07,48.11.06a1.15,1.15,0,0,0-.5-.74c-.77-.77-1.56-1.51-2.37-2.24-.55-.49-2.28-2.56-3.24-2.56-15.88,0-31.73-.06-47.61-.45a1.12,1.12,0,0,0,.43.77c.7.81,1.43,1.61,2.17,2.38C1036,602.51,1037.63,604.81,1038.52,604.82Z"/><path class="cls-12" d="M1039.3,607.62q24.09-.09,48.18-.07c.51,0-.89-2.08-1.39-2.08q-24,0-48.08.09C1037.48,605.56,1038.83,607.63,1039.3,607.62Z"/></g><g class="cls-11"><path class="cls-12" d="M1035.93,526.19q13.48.1,27,.1a1.3,1.3,0,0,0-.6-.73c-.88-.72-1.78-1.42-2.7-2.11-.73-.55-2.54-2.38-3.64-2.39q-13.31,0-26.61-.44a1.24,1.24,0,0,0,.55.75c.83.76,1.69,1.51,2.56,2.24C1033.09,524.14,1034.9,526.18,1035.93,526.19Z"/><path class="cls-12" d="M1036.79,527.68q13.5.09,27,.08a1.5,1.5,0,0,0-.6-.81c-.91-.83-1.83-1.65-2.77-2.44-.64-.55-2.65-2.83-3.73-2.84q-13.31,0-26.61-.42a1.38,1.38,0,0,0,.55.83q1.27,1.32,2.61,2.58c.88.85,1.78,1.69,2.69,2.5A1.44,1.44,0,0,0,1036.79,527.68Z"/><path class="cls-12" d="M1037.86,527.19q13.38-.37,26.76-.25c.75,0-.28-1-.62-1q-13.3-.19-26.59.38C1036.75,526.35,1037.51,527.2,1037.86,527.19Z"/><path class="cls-12" d="M1037.51,531.16q13.47-.1,27-.08c.49,0-1-2.09-1.47-2.09q-13.39,0-26.77.09C1035.7,529.08,1037,531.16,1037.51,531.16Z"/><path class="cls-12" d="M1036.29,528q13.49.08,27,.07a1.83,1.83,0,0,0-.66-.94c-1-1-2-2-3-3s-2-2-3.06-2.89a1.78,1.78,0,0,0-.95-.62q-13.26,0-26.5-.47a1.72,1.72,0,0,0,.59,1c.91,1.06,1.84,2.1,2.78,3.13s1.9,2,2.88,3A1.79,1.79,0,0,0,1036.29,528Z"/><path class="cls-12" d="M1036.18,526.73q13.5.09,27,.09a1.48,1.48,0,0,0-.65-.81q-1.44-1.25-2.94-2.43c-.71-.57-2.79-2.8-3.93-2.81q-13.29,0-26.59-.46a1.48,1.48,0,0,0,.61.83c.9.88,1.83,1.74,2.78,2.58s1.88,1.69,2.85,2.5A1.5,1.5,0,0,0,1036.18,526.73Z"/><path class="cls-12" d="M1036.76,529.37h26.94c.13,0-1.87-2.35-1.83-2.31-.4-.41-1.48-1.92-2.22-1.93q-13.31.09-26.61-.26a21.65,21.65,0,0,0,1.65,2.43C1035,527.68,1036.06,529.37,1036.76,529.37Z"/><path class="cls-12" d="M1038.3,528q13.44-.15,26.87-.1c.49,0-.23-.65-.22-.64-.3-.29-1-.85-1.4-.85q-13.33-.07-26.66.13C1036.46,526.53,1037.83,528,1038.3,528Z"/><path class="cls-12" d="M1036.9,529.38q13.49,0,27,0a1.35,1.35,0,0,0-.49-.83c-.79-.87-1.59-1.73-2.41-2.57-.46-.49-2.33-3-3.28-3q-13.25.06-26.49-.4a1.37,1.37,0,0,0,.43.85c.72.92,1.46,1.82,2.21,2.71C1034.21,526.61,1036,529.37,1036.9,529.38Z"/><path class="cls-12" d="M1036.1,527.33q13.49.07,27,.08a1.63,1.63,0,0,0-.64-.87c-1-.91-1.93-1.81-2.92-2.69s-2-1.76-3-2.61a1.65,1.65,0,0,0-.93-.54q-13.27,0-26.54-.48a1.59,1.59,0,0,0,.59.9c.89,1,1.8,1.92,2.74,2.85s1.86,1.86,2.82,2.77A1.62,1.62,0,0,0,1036.1,527.33Z"/><path class="cls-12" d="M1037.2,528.77q13.47.06,27,.05a1.15,1.15,0,0,0-.48-.75c-.76-.77-1.55-1.52-2.35-2.25-.53-.5-2.25-2.59-3.2-2.6q-13.28.07-26.55-.37a1.16,1.16,0,0,0,.44.77c.7.81,1.43,1.6,2.17,2.38C1034.63,526.46,1036.31,528.77,1037.2,528.77Z"/><path class="cls-12" d="M1038,531.58q13.5-.09,27-.07c.5,0-.9-2.09-1.39-2.09q-13.45,0-26.92.1C1036.16,529.52,1037.51,531.58,1038,531.58Z"/></g><g class="cls-11"><path class="cls-12" d="M1072.65,673.86l-19.05-.06a2,2,0,0,0,.66,1q1.48,1.61,3,3.15c1,1,2,2.07,3.1,3.07a1.92,1.92,0,0,0,1,.67l18.48.51a1.9,1.9,0,0,0-.59-1c-.91-1.13-1.84-2.23-2.79-3.32s-1.9-2.18-2.88-3.25A2,2,0,0,0,1072.65,673.86Z"/><path class="cls-12" d="M1073.37,675.36l-19-.11a1.27,1.27,0,0,0,.51.76c.79.78,1.6,1.54,2.43,2.29.58.52,2.31,2.61,3.3,2.64l18.55.46a1.22,1.22,0,0,0-.44-.79c-.73-.82-1.48-1.63-2.24-2.42C1076,677.71,1074.28,675.36,1073.37,675.36Z"/><path class="cls-12" d="M1071.5,671.57l-18.81,0c-.6,0,.39,1,.41,1,.36.4,1.49,2,2.12,2l18.75.24c.27,0-1.07-1.82-1-1.75C1072.67,672.63,1072.07,671.57,1071.5,671.57Z"/><path class="cls-12" d="M1070.75,675l-18.62.42c-.7,0,.19.93.53.92l18.37-.59C1071.57,675.73,1071.11,675,1070.75,675Z"/><path class="cls-12" d="M1073.11,675.91l-19-.09a1.49,1.49,0,0,0,.65.8c1,.84,1.94,1.65,2.94,2.44.74.6,2.78,2.79,3.94,2.82l18.58.51a1.47,1.47,0,0,0-.6-.84c-.9-.89-1.82-1.75-2.76-2.6s-1.88-1.7-2.84-2.52A1.57,1.57,0,0,0,1073.11,675.91Z"/><path class="cls-12" d="M1073,674.6l-19-.07a1.85,1.85,0,0,0,.66.93c1,1,2,2,3,3s2,2,3.06,2.89a1.86,1.86,0,0,0,.95.62l18.5.52a1.8,1.8,0,0,0-.59-1c-.9-1.07-1.82-2.11-2.77-3.14s-1.88-2.06-2.85-3.07A1.85,1.85,0,0,0,1073,674.6Z"/><path class="cls-12" d="M1072.08,675.53l-19-.08c-.68,0,.8,1,.67.93.6.44,1.86,1.65,2.68,1.67l18.71.32c.66,0-.65-1-.58-1C1074.08,677,1072.81,675.53,1072.08,675.53Z"/><path class="cls-12" d="M1072.22,672.64H1053.3c-.55,0,.28.8.3.82.3.35,1.21,1.51,1.74,1.51l18.54.13C1074.35,675.1,1072.78,672.64,1072.22,672.64Z"/><path class="cls-12" d="M1072.83,676.27l-18.7-.07c-.79,0,1.15,1.28,1,1.17.77.56,1.56,1.1,2.35,1.63a5.91,5.91,0,0,0,1.29.74l18.54.35c.64,0-1.25-1.53-1.42-1.67C1075.17,677.83,1073.84,676.28,1072.83,676.27Z"/><path class="cls-12" d="M1072.93,675.25l-19-.09a1.7,1.7,0,0,0,.67.88c1,.92,2,1.83,3,2.72s2.05,1.77,3.1,2.63a1.71,1.71,0,0,0,1,.55l18.55.51a1.74,1.74,0,0,0-.61-.91c-.93-1-1.87-1.94-2.83-2.88s-1.93-1.89-2.92-2.81A1.63,1.63,0,0,0,1072.93,675.25Z"/><path class="cls-12" d="M1073,675.65l-18.69,0c-.75,0,1,1.28.89,1.21q1.08.88,2.19,1.74a5.1,5.1,0,0,0,1.22.79l18.7.36c.08,0-2-2.25-2-2.22C1074.89,677,1073.79,675.65,1073,675.65Z"/><path class="cls-12" d="M1071.17,675.31l-18.69.36c-.52,0-.1.74.26.73l18.57-.45C1071.73,675.94,1071.55,675.31,1071.17,675.31Z"/></g><g class="cls-11"><path class="cls-12" d="M1039.9,450.14q18.42.15,36.85.14a1.25,1.25,0,0,0-.61-.71c-.9-.71-1.82-1.4-2.75-2.07-.76-.55-2.57-2.32-3.69-2.33q-18.2,0-36.37-.6a1.24,1.24,0,0,0,.55.75c.83.77,1.68,1.52,2.56,2.25C1037.06,448.09,1038.87,450.14,1039.9,450.14Z"/><path class="cls-12" d="M1040.76,451.63q18.45.14,36.89.11a1.42,1.42,0,0,0-.62-.79q-1.38-1.23-2.82-2.4c-.67-.56-2.69-2.76-3.79-2.77q-18.18.06-36.36-.57a1.45,1.45,0,0,0,.55.83q1.28,1.32,2.61,2.58c.88.85,1.77,1.68,2.69,2.5A1.38,1.38,0,0,0,1040.76,451.63Z"/><path class="cls-12" d="M1041.83,451.15q18.33-.37,36.67-.26c.75,0-.28-1-.62-1q-18.26-.18-36.51.38C1040.72,450.3,1041.48,451.15,1041.83,451.15Z"/><path class="cls-12" d="M1041.48,455.11q18.43-.11,36.87-.07c.49,0-1-2.09-1.47-2.09q-18.33,0-36.68.08C1039.67,453,1041,455.12,1041.48,455.11Z"/><path class="cls-12" d="M1040.26,452q18.42.11,36.86.1a1.8,1.8,0,0,0-.67-.92c-1-1-2-2-3-2.91s-2.06-1.91-3.12-2.83a1.9,1.9,0,0,0-1-.61q-18.12,0-36.23-.64a1.86,1.86,0,0,0,.59,1q1.36,1.59,2.79,3.12c.94,1,1.9,2.05,2.88,3.05A1.74,1.74,0,0,0,1040.26,452Z"/><path class="cls-12" d="M1040.15,450.69q18.43.12,36.86.11a1.6,1.6,0,0,0-.67-.79c-1-.81-2-1.6-3-2.38-.75-.58-2.83-2.73-4-2.74q-18.18,0-36.34-.63a1.57,1.57,0,0,0,.6.84c.91.88,1.84,1.74,2.78,2.58s1.89,1.68,2.86,2.49A1.49,1.49,0,0,0,1040.15,450.69Z"/><path class="cls-12" d="M1040.73,453.33l36.81,0c.12,0-1.93-2.31-1.89-2.27-.42-.43-1.52-1.89-2.27-1.89q-18.2.12-36.37-.36a22.48,22.48,0,0,0,1.65,2.42C1039,451.64,1040,453.33,1040.73,453.33Z"/><path class="cls-12" d="M1042.27,451.94q18.4-.15,36.79-.1c.48,0-.23-.65-.22-.64-.3-.29-.95-.86-1.4-.86q-18.3-.06-36.58.14C1040.42,450.48,1041.79,451.94,1042.27,451.94Z"/><path class="cls-12" d="M1040.87,453.33q18.42.09,36.84.08a1.31,1.31,0,0,0-.51-.82q-1.2-1.29-2.46-2.52c-.51-.5-2.39-2.95-3.37-2.95q-18.11.09-36.2-.56a1.32,1.32,0,0,0,.43.85c.72.92,1.45,1.83,2.21,2.71C1038.18,450.57,1040,453.33,1040.87,453.33Z"/><path class="cls-12" d="M1040.07,451.28q18.42.12,36.85.11a1.57,1.57,0,0,0-.66-.85q-1.46-1.35-3-2.64c-1-.87-2-1.72-3-2.55a1.66,1.66,0,0,0-.94-.53q-18.15,0-36.27-.64a1.63,1.63,0,0,0,.58.9c.9,1,1.81,1.91,2.74,2.84s1.87,1.87,2.83,2.77A1.54,1.54,0,0,0,1040.07,451.28Z"/><path class="cls-12" d="M1041.16,452.73q18.42.09,36.85.07a1.17,1.17,0,0,0-.5-.74c-.79-.75-1.59-1.49-2.4-2.2-.57-.51-2.29-2.53-3.27-2.54q-18.15.1-36.29-.52a1.14,1.14,0,0,0,.43.77c.71.81,1.43,1.61,2.18,2.38C1038.6,450.42,1040.27,452.72,1041.16,452.73Z"/><path class="cls-12" d="M1042,455.54q18.46-.1,36.93-.07c.51,0-.89-2.09-1.38-2.09q-18.42,0-36.84.09C1040.13,453.48,1041.48,455.54,1042,455.54Z"/></g><rect class="cls-1" x="163" y="837" width="1184" height="3"/></g></g></svg>